#N canvas 880 47 893 641 10;
#X msg 291 534 \; pd dsp 1;
#N canvas 0 0 450 300 (subpatch) 0;
#X array array1 182096 float 2;
#X coords 0 1 182096 -1 200 140 1;
#X restore 358 240 graph;
#X msg 431 156 synth;
#N canvas 564 291 396 291 voice 1;
#X msg 34 44 voice serbian;
#X msg 188 92 voice \$1;
#X symbolatom 188 62 0 0 0 0 - - -;
#X msg 188 42 bang;
#X obj 74 229 outlet;
#X obj 200 152 bng 15 250 50 0 empty empty list_all_available_voices
17 7 0 10 -262144 -1 -1;
#X msg 49 70 voice german;
#X msg 67 93 voice english;
#X connect 0 0 4 0;
#X connect 1 0 4 0;
#X connect 2 0 1 0;
#X connect 3 0 2 0;
#X connect 5 0 4 0;
#X connect 6 0 4 0;
#X connect 7 0 4 0;
#X restore 182 62 pd voice;
#X text 474 155 synthesize texbuffer;
#X msg 436 95 text das ist ein ganz schon langer text ich weiss auch
nicht;
#X text 453 60 list $text --> set textbuffer AND synthesize;
#X text 436 114 text $text --> set textbuffer DON'T synthesize;
#N canvas 0 0 568 329 set_text 0;
#X obj 59 138 list prepend;
#X obj 59 180 list trim;
#X obj 59 107 t b a;
#X msg 22 41 dosvi denje;
#X msg 24 68 dobro;
#X msg 101 43 na wie geths;
#X symbolatom 241 39 0 0 0 0 - - -;
#X msg 318 50 das ist ein ganz schon langer text ich weiss auch nicht
mehr was ich jetzt noch schreiben soll;
#X obj 59 159 list prepend text;
#X obj 59 201 outlet;
#X connect 0 0 8 0;
#X connect 1 0 9 0;
#X connect 2 0 0 0;
#X connect 2 1 0 1;
#X connect 3 0 2 0;
#X connect 4 0 2 0;
#X connect 5 0 2 0;
#X connect 6 0 2 0;
#X connect 7 0 2 0;
#X connect 8 0 1 0;
#X restore 21 63 pd set_text;
#N canvas 34 374 625 314 synth_text 1;
#X obj 59 208 list prepend;
#X obj 59 177 t b a;
#X msg 22 41 dosvi denje;
#X msg 24 68 dobro;
#X msg 101 43 na wie geths;
#X symbolatom 192 41 0 0 0 0 - - -;
#X msg 240 40 das ist ein ganz schon langer text ich weiss auch nicht
mehr was ich jetzt noch schreiben soll;
#X obj 59 234 outlet;
#X text 40 8 set textbuffer AND synthesize;
#X connect 0 0 7 0;
#X connect 1 0 0 0;
#X connect 1 1 0 1;
#X connect 2 0 1 0;
#X connect 3 0 1 0;
#X connect 4 0 1 0;
#X connect 5 0 1 0;
#X connect 6 0 1 0;
#X restore 96 63 pd synth_text;
#N canvas 1247 529 230 131 array 0;
#X obj 16 84 s array;
#X msg 16 53 set array1;
#X msg 108 55 set array2;
#X connect 1 0 0 0;
#X connect 2 0 0 0;
#X restore -17 165 pd array;
#N canvas 0 0 450 300 (subpatch) 0;
#X array array2 85056 float 2;
#X coords 0 1 85056 -1 200 140 1;
#X restore 590 240 graph;
#X obj 115 552 dac~;
#X obj 114 432 line~;
#X msg 114 401 0 \, 1 \$1;
#X floatatom 114 353 5 0 0 0 - - -;
#X obj 114 371 t f f;
#X obj 193 429 * 44.1;
#X obj 115 467 *~;
#X obj 193 450 / 2;
#X text 240 440 resampling;
#X obj 217 203 bng 15 250 50 0 empty empty empty 17 7 0 10 -262144
-1 -1;
#X obj 114 321 / 22.05;
#X text 126 274 output length in samples;
#X obj 25 343 print length;
#X obj 116 513 hip~ 20;
#X obj -28 299 print available_voice;
#X obj 182 330 bng 15 250 50 0 empty empty empty 17 7 0 10 -262144
-1 -1;
#X obj 44 465 r array;
#X obj -3 192 r array;
#N canvas 250 492 351 216 properties 1;
#X obj 40 179 outlet;
#X text 94 53 pitch 0->100 \, default 50;
#X msg 20 32 rate \$1;
#X floatatom 20 14 5 0 0 0 - - -;
#X msg 52 73 pitch \$1;
#X floatatom 52 55 5 0 0 0 - - -;
#X msg 76 115 pitch \$1;
#X floatatom 76 97 5 0 0 0 - - -;
#X text 118 95 pitch range 0->100 \, default 50;
#X text 58 11 words per minute ~130 ?;
#X connect 2 0 0 0;
#X connect 3 0 2 0;
#X connect 4 0 0 0;
#X connect 5 0 4 0;
#X connect 6 0 0 0;
#X connect 7 0 6 0;
#X restore 239 62 pd properties;
#X obj 62 246 route voice length;
#X text 169 223 arg-> write to this array;
#X text 600 551 espeak 0.2 pd external;
#X text 601 570 (C) 2011 Matthias Kronlachner;
#X text 604 590 thanks to;
#X text 620 604 IOhannes Zmoelnig;
#X text 623 616 Bryan Jurish;
#X obj 62 222 espeak array1;
#X obj 115 492 tabread4~ array1;
#X msg 435 28 list das ist ein ganz schon langer text ich weiss auch
nicht haha a;
#X connect 2 0 38 0;
#X connect 3 0 38 0;
#X connect 5 0 38 0;
#X connect 8 0 38 0;
#X connect 9 0 38 0;
#X connect 13 0 18 0;
#X connect 14 0 13 0;
#X connect 15 0 16 0;
#X connect 16 0 14 0;
#X connect 16 1 17 0;
#X connect 17 0 19 0;
#X connect 18 0 39 0;
#X connect 19 0 18 1;
#X connect 21 0 38 0;
#X connect 22 0 15 0;
#X connect 25 0 12 0;
#X connect 25 0 12 1;
#X connect 27 0 15 0;
#X connect 28 0 39 0;
#X connect 29 0 38 0;
#X connect 30 0 38 0;
#X connect 31 0 26 0;
#X connect 31 1 22 0;
#X connect 31 1 24 0;
#X connect 38 0 31 0;
#X connect 39 0 25 0;
#X connect 40 0 38 0;
